<?xml version="1.0" encoding="UTF-8" standalone="no"?>
<!-- Created with Inkscape (http://www.inkscape.org/) -->

<svg
   xmlns:dc="http://purl.org/dc/elements/1.1/"
   xmlns:cc="http://creativecommons.org/ns#"
   xmlns:rdf="http://www.w3.org/1999/02/22-rdf-syntax-ns#"
   xmlns:svg="http://www.w3.org/2000/svg"
   xmlns="http://www.w3.org/2000/svg"
   xmlns:sodipodi="http://sodipodi.sourceforge.net/DTD/sodipodi-0.dtd"
   xmlns:inkscape="http://www.inkscape.org/namespaces/inkscape"
   width="512"
   height="512"
   id="svg2"
   version="1.1"
   inkscape:version="0.48.4 r9939"
   sodipodi:docname="New document 1">
  <defs
     id="defs4" />
  <sodipodi:namedview
     id="base"
     pagecolor="#ffffff"
     bordercolor="#666666"
     borderopacity="1.0"
     inkscape:pageopacity="0.0"
     inkscape:pageshadow="2"
     inkscape:zoom="1.5253906"
     inkscape:cx="256"
     inkscape:cy="256"
     inkscape:document-units="px"
     inkscape:current-layer="layer1"
     showgrid="false"
     inkscape:window-width="1680"
     inkscape:window-height="998"
     inkscape:window-x="-8"
     inkscape:window-y="-8"
     inkscape:window-maximized="1" />
  <metadata
     id="metadata7">
    <rdf:RDF>
      <cc:Work
         rdf:about="">
        <dc:format>image/svg+xml</dc:format>
        <dc:type
           rdf:resource="http://purl.org/dc/dcmitype/StillImage" />
        <dc:title></dc:title>
      </cc:Work>
    </rdf:RDF>
  </metadata>
  <g
     inkscape:label="Layer 1"
     inkscape:groupmode="layer"
     id="layer1"
     transform="translate(0,-540.36218)">
    <path
       sodipodi:type="arc"
       style="fill:#ffcc00;fill-opacity:1;stroke:none"
       id="path2985"
       sodipodi:cx="246.49423"
       sodipodi:cy="275.99487"
       sodipodi:rx="216.99359"
       sodipodi:ry="207.16005"
       d="m 463.48782,275.99487 a 216.99359,207.16005 0 1 1 -433.987179,0 216.99359,207.16005 0 1 1 433.987179,0 z"
       transform="translate(3.2778489,522.6618)" />
    <path
       sodipodi:type="arc"
       style="fill:#ffcc00;fill-opacity:1;stroke:none"
       id="path2987"
       sodipodi:cx="131.44174"
       sodipodi:cy="162.25352"
       sodipodi:rx="103.25224"
       sodipodi:ry="98.007683"
       d="m 234.69398,162.25352 a 103.25224,98.007683 0 1 1 -206.504481,0 103.25224,98.007683 0 1 1 206.504481,0 z"
       transform="translate(0,540.36218)" />
    <path
       transform="translate(237.64405,547.90123)"
       sodipodi:type="arc"
       style="fill:#ffcc00;fill-opacity:1;stroke:none"
       id="path2987-1"
       sodipodi:cx="131.44174"
       sodipodi:cy="162.25352"
       sodipodi:rx="103.25224"
       sodipodi:ry="98.007683"
       d="m 234.69398,162.25352 a 103.25224,98.007683 0 1 1 -206.504481,0 103.25224,98.007683 0 1 1 206.504481,0 z" />
    <path
       sodipodi:type="arc"
       style="fill:#ffffff;fill-opacity:1;stroke:none"
       id="path3007"
       sodipodi:cx="133.40845"
       sodipodi:cy="151.7644"
       sodipodi:rx="72.44046"
       sodipodi:ry="64.573624"
       d="m 205.84891,151.7644 a 72.44046,64.573624 0 1 1 -144.880923,0 72.44046,64.573624 0 1 1 144.880923,0 z"
       transform="translate(-4.5889885,544.95117)" />
    <path
       sodipodi:type="arc"
       style="fill:#ffffff;fill-opacity:1;stroke:none"
       id="path3007-7"
       sodipodi:cx="133.40845"
       sodipodi:cy="151.7644"
       sodipodi:rx="72.44046"
       sodipodi:ry="64.573624"
       d="m 205.84891,151.7644 a 72.44046,64.573624 0 1 1 -144.880923,0 72.44046,64.573624 0 1 1 144.880923,0 z"
       transform="translate(236.98848,553.14579)" />
    <path
       sodipodi:type="arc"
       style="fill:#000000;fill-opacity:1;stroke:none"
       id="path3027"
       sodipodi:cx="147.5032"
       sodipodi:cy="162.5813"
       sodipodi:rx="34.08963"
       sodipodi:ry="33.434059"
       d="m 181.59283,162.5813 a 34.08963,33.434059 0 1 1 -68.17926,0 34.08963,33.434059 0 1 1 68.17926,0 z"
       transform="translate(0,540.36218)" />
    <path
       transform="translate(206.50448,547.57345)"
       sodipodi:type="arc"
       style="fill:#000000;fill-opacity:1;stroke:none"
       id="path3027-4"
       sodipodi:cx="147.5032"
       sodipodi:cy="162.5813"
       sodipodi:rx="34.08963"
       sodipodi:ry="33.434059"
       d="m 181.59283,162.5813 a 34.08963,33.434059 0 1 1 -68.17926,0 34.08963,33.434059 0 1 1 68.17926,0 z" />
    <path
       sodipodi:type="arc"
       style="fill:#f9f9f9;fill-opacity:1;stroke:none"
       id="path3047"
       sodipodi:cx="158.97568"
       sodipodi:cy="168.80922"
       sodipodi:rx="10.816901"
       sodipodi:ry="10.161331"
       d="m 169.79258,168.80922 a 10.816901,10.161331 0 1 1 -21.6338,0 10.816901,10.161331 0 1 1 21.6338,0 z"
       transform="translate(0.65556978,523.31737)" />
    <path
       sodipodi:type="arc"
       style="fill:#f9f9f9;fill-opacity:1;stroke:none"
       id="path3047-0"
       sodipodi:cx="158.97568"
       sodipodi:cy="168.80922"
       sodipodi:rx="10.816901"
       sodipodi:ry="10.161331"
       d="m 169.79258,168.80922 a 10.816901,10.161331 0 1 1 -21.6338,0 10.816901,10.161331 0 1 1 21.6338,0 z"
       transform="translate(205.52112,527.57857)" />
    <path
       sodipodi:type="arc"
       style="fill:#501616;fill-opacity:1;stroke:none"
       id="path3067"
       sodipodi:cx="251.08322"
       sodipodi:cy="346.14084"
       sodipodi:rx="116.69142"
       sodipodi:ry="43.267605"
       d="m 367.77464,346.14084 a 116.69142,43.267605 0 1 1 -233.38284,0 116.69142,43.267605 0 1 1 233.38284,0 z"
       transform="translate(0,540.36218)" />
    <path
       transform="matrix(0.69101124,0,0,0.59090908,81.187533,666.55937)"
       style="fill:#f2f2f2;fill-opacity:1;stroke:none"
       d="m 367.77464,346.14084 c 0,11.94802 -13.06113,22.76492 -34.17813,30.59481 -21.11699,7.8299 -50.28985,12.67279 -82.51329,12.67279 -32.22345,0 -61.3963,-4.84289 -82.51329,-12.67278 -21.117,-7.8299 -34.17813,-18.6468 -34.17813,-30.59482 0,-11.94802 -9.70793,-27.20262 11.40907,-35.03252 21.11699,-7.8299 74.00761,-13.78222 106.23106,-13.78222 32.22344,0 78.47309,8.17117 99.59008,16.00107 21.117,7.8299 16.15263,20.86565 16.15263,32.81367 z"
       id="path3067-9"
       inkscape:connector-curvature="0"
       sodipodi:nodetypes="sssssssss" />
    <path
       sodipodi:type="arc"
       style="fill:#d4aa00;fill-opacity:1;stroke:none"
       id="path3088"
       sodipodi:cx="246.82202"
       sodipodi:cy="243.87196"
       sodipodi:rx="43.59539"
       sodipodi:ry="39.989758"
       d="m 290.41741,243.87196 a 43.59539,39.989758 0 1 1 -87.19078,0 43.59539,39.989758 0 1 1 87.19078,0 z"
       transform="matrix(0.42857143,0,0,0.4590164,121.37406,695.89342)" />
    <path
       sodipodi:type="arc"
       style="fill:#d4aa00;fill-opacity:1;stroke:none"
       id="path3088-4"
       sodipodi:cx="246.82202"
       sodipodi:cy="243.87196"
       sodipodi:rx="43.59539"
       sodipodi:ry="39.989758"
       d="m 290.41741,243.87196 a 43.59539,39.989758 0 1 1 -87.19078,0 43.59539,39.989758 0 1 1 87.19078,0 z"
       transform="matrix(0.42857143,0,0,0.4590164,166.93616,696.54899)" />
  </g>
</svg>
